<?xml version="1.0" encoding="utf-8"?>
<!-- Generator: Adobe Illustrator 25.0.1, SVG Export Plug-In . SVG Version: 6.00 Build 0)  -->
<svg version="1.1" id="Layer_1" xmlns="http://www.w3.org/2000/svg" xmlns:xlink="http://www.w3.org/1999/xlink" x="0px" y="0px"
	 viewBox="0 0 260 260" style="enable-background:new 0 0 260 260;" xml:space="preserve">
<style type="text/css">
	.st0{clip-path:url(#SVGID_2_);}
	.st1{fill:#FDFDFD;}
</style>
<g>
	<defs>
		<rect id="SVGID_1_" width="260" height="260"/>
	</defs>
	<clipPath id="SVGID_2_">
		<use xlink:href="#SVGID_1_"  style="overflow:visible;"/>
	</clipPath>
	<g class="st0">
		<path class="st1" d="M130,0C58.3,0,0,58.3,0,130c0,71.7,58.3,130,130,130c71.7,0,130-58.3,130-130C260,58.3,201.7,0,130,0L130,0z
			 M130,254.2C61.5,254.2,5.8,198.5,5.8,130v0h12.3c0-4.5,0.3-9,0.8-13.5L6.7,115c0.6-5,1.5-9.9,2.7-14.8l11.9,2.9
			c1.1-4.4,2.4-8.7,4-12.9L13.9,86c1.8-4.7,3.9-9.3,6.2-13.7L30.9,78c2.1-4,4.4-7.9,7-11.6l-10-6.9c2.8-4.1,5.9-8,9.3-11.8l9.1,8.1
			c3-3.4,6.2-6.6,9.6-9.6l-8.1-9.1c3.7-3.3,7.7-6.4,11.8-9.3l6.9,10c3.7-2.6,7.6-4.9,11.6-7l-5.7-10.8c4.4-2.3,9-4.4,13.7-6.2
			l4.3,11.4c4.2-1.6,8.5-2.9,12.9-4l-2.9-11.9c4.8-1.2,9.7-2.1,14.7-2.7l1.5,12.2c4.5-0.5,9-0.8,13.5-0.8V5.8c5.1,0,10,0.3,15,0.9
			l-1.5,12.2c4.5,0.5,8.9,1.3,13.3,2.4l2.9-11.9c4.9,1.2,9.7,2.7,14.3,4.5l-4.3,11.4c4.2,1.6,8.3,3.5,12.3,5.6l5.7-10.8
			c4.4,2.3,8.7,4.9,12.8,7.8l-6.9,10c3.7,2.6,7.3,5.4,10.6,8.4l8.1-9.1c3.7,3.3,7.3,6.8,10.6,10.6l-9.1,8.1c3,3.4,5.8,6.9,8.3,10.6
			l10-6.9c2.8,4.1,5.4,8.4,7.8,12.8L229.1,78c2.1,4,3.9,8.1,5.5,12.3l11.4-4.3c1.8,4.6,3.3,9.4,4.5,14.3l-11.9,2.9
			c1.1,4.4,1.9,8.8,2.4,13.3l12.2-1.5c0.6,4.9,0.9,9.9,0.9,15C254.2,198.5,198.5,254.2,130,254.2z M30.3,130
			c0,55,44.7,99.7,99.7,99.7c55,0,99.7-44.7,99.7-99.7v0h12.2c0-4.5-0.3-9-0.8-13.5l-12.1,1.4c-0.5-4-1.2-8-2.2-11.8l11.9-2.9
			c-1.1-4.4-2.4-8.7-4-12.9l-11.5,4.3c-1.4-3.8-3.1-7.4-4.9-11l10.9-5.7c-2.1-4-4.4-7.9-7-11.6l-10.1,7c-2.3-3.3-4.8-6.5-7.4-9.5
			l9.2-8.1c-3-3.4-6.2-6.6-9.6-9.6l-8.2,9.2c-3-2.7-6.2-5.1-9.5-7.4l7-10.1c-3.7-2.6-7.6-4.9-11.6-7l-5.7,10.9
			c-3.5-1.9-7.2-3.5-11-5l4.3-11.5c-4.2-1.6-8.5-2.9-12.9-4l-2.9,11.9c-3.9-1-7.8-1.7-11.8-2.2l1.5-12.1c-4.5-0.5-9-0.8-13.5-0.8
			v12.2h0c-4.1,0-8.1,0.3-12,0.7l-1.5-12.1c-4.5,0.5-8.9,1.3-13.3,2.4l2.9,11.9c-3.9,1-7.8,2.2-11.5,3.6l-4.3-11.5
			c-4.2,1.6-8.3,3.5-12.3,5.6l5.7,10.9c-3.6,1.9-7,4-10.3,6.2l-7-10.1c-3.7,2.6-7.3,5.4-10.6,8.4l8.1,9.2c-3,2.7-5.8,5.5-8.5,8.5
			l-9.2-8.1c-3,3.4-5.8,6.9-8.3,10.6l10.1,7c-2.3,3.3-4.4,6.7-6.2,10.3L30.9,78c-2.1,4-4,8.1-5.6,12.3l11.5,4.4
			c-1.4,3.7-2.6,7.6-3.6,11.5l-11.9-2.9c-1.1,4.4-1.9,8.8-2.4,13.3l12.1,1.4C30.6,121.9,30.3,125.9,30.3,130z M130,36.1
			c51.8,0,93.9,42.1,93.9,93.9c0,51.8-42.1,93.9-93.9,93.9c-51.8,0-93.9-42.1-93.9-93.9C36.1,78.2,78.2,36.1,130,36.1z M33.4,164
			l-6.1-4.5l3-7l-2.5-9.1l-17.8,2.4l2.5,9.1l8.1-1.1l-2.4,8.2l6.3,5.8l-7.5,3.2l2.5,9.1l16.5-7L33.4,164z M73.5,215.9l-6-4l-2-1.3
			l-5.9-4l-10.4,14.3l7.9,5.3l7.6-10.5l4.3,2.9c1.5,1,1.1,3.9-1.1,4.1c-2.2,0.3-4.7-0.9-4.7-0.9l1.8,9.7l8.9,6l-1.5-8.1
			c0,0,5.5,0.5,7.6-2.3C83,223,77.4,218.6,73.5,215.9z M85.9,241.7l8.2,2.9l5.5-15.2l-8.2-2.9L85.9,241.7z M121.7,232.4
			c-7.8-0.6-14.6,3-15.1,8c-0.5,5,5.5,9.6,13.3,10.2c7.8,0.6,14.6-3,15.1-8C135.5,237.6,129.5,233,121.7,232.4z M120.6,244.2
			c-2.3-0.2-4.1-1.5-3.9-3c0.1-1.5,2.1-2.5,4.4-2.4c2.3,0.2,4.1,1.5,3.9,3C124.9,243.3,122.9,244.4,120.6,244.2z M48.1,192.6
			l-1.4-1.9l-4.2-5.6l-18,5.5l5.6,7.4l14.4-4.4l-8.7,11.8l5.6,7.4l10.9-14.8L48.1,192.6z M177.5,222.9l-10.3,3.3l-5.3,10.1l-2.8-7.5
			l-9.2,2.9l5.9,16l9.2-2.9l-2.7-7.5l10.8,4.9l10.3-3.3l-11.5-5.3L177.5,222.9z M193.9,211.2l-1.9,1.4l-5.7,4.2l6.3,17l7.6-5.6
			l-5-13.6l12.6,8l7.6-5.6l-15.8-10L193.9,211.2z M228.8,177c-4.4-2.8-8.8,2.7-11.5,6.6l-4,5.9l-1.3,2l-4,5.9l15.1,9.8l5.3-7.8
			l-11.1-7.2l2.9-4.3c1-1.4,4-1.2,4.3,1c0.3,2.2-0.9,4.6-0.9,4.6l10-2l6-8.8l-8.4,1.6C231.4,184.3,231.9,178.9,228.8,177z
			 M238.2,141.1l-4.5-1l-2.1,9l-2.1,9l-2.1,9l4.5,1l2.1-9l12.4,2.8l2.1-9l-12.4-2.8L238.2,141.1z M54.8,135.9
			c0.1,0.4,0.1,0.8,0.3,1.3c3.7,14.3,14,25.3,27.3,29.6c0.9,8.6,4.6,19.9,16.8,24.2c9.6,3.4,19.4,4.5,26,4.6c0,0,2.3,0,2.3,0
			c0,0,2.1,0,2.1,0l2,0c0,0,2.3,0,2.3,0c6.6,0,16.3-1.2,26-4.6c11.5-4,15.1-15.1,16.2-23.7c15.3-4.4,25.4-18,28.8-30l0-0.2
			c0-0.1,0.3-1.3,0.3-1.3l0-0.1c3.8-18-0.7-39.2-12.1-56.8v0l0,0l-0.5-0.8c-14.5-21.9-36.5-34.3-62-35l0,0h-0.8l0,0
			C104.1,43.9,82,56.2,67.5,77.9c0,0.1-0.6,0.9-0.6,0.9C55.6,96.3,50.9,118.2,54.8,135.9C54.8,135.9,54.8,135.9,54.8,135.9z
			 M158.4,185.5c-8.9,3.5-18.3,4.3-24.5,4.3l-2.3,0c0,0-2,0-2,0c0,0-2.1,0-2.1,0c0,0-2.3,0-2.3,0c-6.2,0-15.6-0.8-24.5-4.3
			c-13.5-5.3-14.1-21.3-14.1-26.9c0-0.8,0-1,0-1.3c7.7-8.9,23.8-14.3,42.8-14.4c19.3,0,35,6.4,42.7,14.5c0,0.3,0,0.5,0,1.3
			C172.1,164.3,172,180.2,158.4,185.5z M189.8,84.9c3,5.5,5.8,11.6,7.5,16.4c2.3,7.2,3.5,14.5,3.5,21.5c0,3.4-0.3,6.8-0.8,10
			c-7.7-8.5-12.1-20.5-12.1-33.5C187.8,94.4,188.5,89.6,189.8,84.9z M72.9,80.2c13.4-19.5,33.6-30.6,56.9-31.3h0.6
			c23.2,0.7,43.4,11.9,56.8,31.7c0.2,0.3,0.3,0.5,0.5,0.8l0,0.1c-1.9,5.8-2.8,11.8-2.8,17.9c0,14.4,5.2,27.8,14.2,37
			c-2.8,9.5-10.9,20.5-22.7,24.8c0-3-0.2-4.9-0.2-5l-0.1-0.6l-0.3-0.5c-8.4-10.9-25.7-17.9-46.2-17.9c-20.8,0.1-38.8,6.9-46.9,17.9
			l-0.3,0.5l-0.1,0.6c0,0.1-0.2,1.8-0.3,4.4c-10.3-4.1-18.1-12.9-21.2-24.1c9.1-9.1,14.3-22.6,14.3-37.1c0-6.2-1-12.3-2.9-18.1
			C72.5,80.9,72.7,80.5,72.9,80.2z M63,100.4c1.7-4.7,4.4-10.5,7.2-15.6c1.3,4.7,2,9.6,2,14.6c0,13.1-4.4,25.1-12.2,33.6
			c-0.6-3.2-0.9-6.6-0.9-10C59.2,115.6,60.5,107.9,63,100.4z M130.3,126.5c21.1,0,38.2-16.7,38.2-37.3c0-20.6-17.2-37.3-38.2-37.3
			c-21.1,0-38.2,16.7-38.2,37.3C92.1,109.8,109.2,126.5,130.3,126.5z M130.3,54.9c19.5,0,35.3,15.4,35.3,34.4
			c0,19-15.9,34.4-35.3,34.4c-19.5,0-35.3-15.4-35.3-34.4C95,70.3,110.8,54.9,130.3,54.9z M146.2,149.3c-3.8-0.4-3.8,5.8-3.8,12.9
			c0,7.1,0.6,12.9,3.9,12.8c3.5,0,4-6,4-13.1C150.3,154.8,149.5,149.6,146.2,149.3z M147.6,158c-0.4,0.9-0.9,1.3-1.5,1.3
			c-0.6,0-1.1-0.3-1.5-1.3c-0.3-0.7-0.5-1.9-0.5-2.9c0-1,0.1-2.2,0.4-2.9c0.4-0.9,0.9-1.3,1.5-1.3c0.6,0,1.2,0.4,1.5,1.3
			c0.3,0.7,0.4,1.8,0.4,2.8C148,156.1,147.9,157.3,147.6,158z M114.1,149.3c-3.3,0.3-4.1,5.5-4.1,12.6c0,7.1,0.5,13.1,4,13.1
			c3.4,0,3.9-5.7,3.9-12.8C117.9,155.1,117.9,148.9,114.1,149.3z M115.7,158c-0.4,0.9-0.9,1.3-1.5,1.3c-0.6,0-1.2-0.3-1.5-1.3
			c-0.3-0.7-0.4-1.9-0.4-2.9c0-1,0.1-2.1,0.4-2.8c0.4-0.9,0.9-1.3,1.5-1.3c0.6,0,1.1,0.4,1.5,1.3c0.3,0.7,0.4,1.9,0.4,2.9
			C116.2,156.2,116,157.3,115.7,158z M133.4,205.6l-3.4-6.8l-3.4,6.8l-7.5,1.1l5.4,5.3l-1.3,7.5l6.7-3.5l6.7,3.5l-1.3-7.5l5.4-5.3
			L133.4,205.6z M167.3,199.5l-5.8,1.4l-4.5-3.9l-0.4,6l-5.1,3l5.5,2.2l1.3,5.8l3.8-4.6l5.9,0.6L165,205L167.3,199.5z M102.9,197
			l-4.5,3.9l-5.8-1.4L95,205l-3.2,5.1l5.9-0.6l3.8,4.6l1.3-5.8l5.5-2.2l-5.1-3L102.9,197z M206.5,157c1.4-4.5-0.6-7.6-0.6-7.6
			s-3.3,1.2-4.6,5.8c-0.9,3.1-0.5,6-0.1,7.6c-1.1,2.5-2.4,5.3-4.1,8.2c0.3-1.2,0.5-2.7,0.4-4.2c-0.4-4.5-3.2-6.4-3.2-6.4
			s-2.4,2.4-2,6.9c0.3,3.3,2,5.9,2.8,7c-1.4,2.1-2.9,4.2-4.7,6.3c0.5-1.5,1-3.7,0.6-6.1c-0.6-4.5-3.5-6.2-3.5-6.2s-2.3,2.5-1.7,7
			c0.5,3.4,2.3,5.8,3.2,6.8c-1.9,2.1-4,4.1-6.3,6.1c0.6-1.5,1.3-4,0.9-6.8c-0.6-4.5-3.5-6.2-3.5-6.2s-2.3,2.5-1.7,7
			c0.5,3.4,2.3,5.9,3.2,6.9c-1.1,0.9-2.2,1.7-3.3,2.6l0.7,1.2c2.5-1.8,4.8-3.8,6.9-5.7c1,0.9,3.6,2.8,7,3c4.4,0.3,6.7-2.5,6.7-2.5
			s-1.9-3.1-6.3-3.4c-2.2-0.2-4.1,0.4-5.5,1c1.8-1.8,3.4-3.7,4.9-5.6c1.2,0.6,4.2,1.7,7.6,1c4.4-0.9,5.9-4.2,5.9-4.2
			s-2.6-2.4-6.9-1.5c-1.8,0.4-3.3,1.2-4.5,2.1c1.4-2,2.7-4,3.8-5.9c1.3,0.2,4.4,0.4,7.5-1.3c4-2.2,4.6-5.8,4.6-5.8s-3.1-1.6-7.1,0.6
			c-1,0.6-1.9,1.2-2.6,1.9c0.6-1.2,1.1-2.3,1.5-3.4C203.6,162.2,205.6,160.1,206.5,157z M74.1,187.1c2.1,2,4.4,3.9,6.9,5.7l0.7-1.2
			c-1.2-0.8-2.3-1.7-3.3-2.6c0.9-1,2.7-3.5,3.2-6.9c0.6-4.5-1.7-7-1.7-7s-2.9,1.7-3.5,6.2c-0.4,2.8,0.3,5.3,0.9,6.8
			c-2.3-2-4.4-4-6.3-6.1c0.9-1,2.7-3.5,3.2-6.8c0.6-4.5-1.7-7-1.7-7s-2.9,1.7-3.5,6.2c-0.3,2.4,0.1,4.6,0.6,6.1
			c-1.8-2.1-3.3-4.2-4.7-6.3c0.8-1.1,2.5-3.6,2.8-7c0.4-4.5-2-6.9-2-6.9s-2.8,1.9-3.2,6.4c-0.1,1.6,0,3,0.4,4.2
			c-1.7-2.9-3.1-5.7-4.1-8.2c0.4-1.6,0.8-4.5-0.1-7.6c-1.4-4.5-4.6-5.8-4.6-5.8s-2,3-0.6,7.6c0.9,3.1,2.9,5.2,4.1,6.2
			c0.5,1.1,1,2.2,1.5,3.4c-0.7-0.7-1.6-1.4-2.6-1.9c-4-2.2-7.1-0.6-7.1-0.6s0.6,3.6,4.6,5.8c3,1.7,6.2,1.5,7.5,1.3
			c1.1,1.9,2.4,3.9,3.8,5.9c-1.2-0.9-2.7-1.7-4.5-2.1c-4.4-0.9-6.9,1.5-6.9,1.5s1.5,3.3,5.9,4.2c3.4,0.7,6.4-0.5,7.6-1
			c1.5,1.9,3.1,3.7,4.9,5.6c-1.4-0.6-3.4-1.2-5.5-1c-4.4,0.3-6.3,3.4-6.3,3.4s2.3,2.8,6.7,2.5C70.5,189.9,73,188,74.1,187.1z"/>
	</g>
</g>
</svg>
