<?xml version="1.0" encoding="utf-8"?>
<!-- Generator: Adobe Illustrator 25.0.1, SVG Export Plug-In . SVG Version: 6.00 Build 0)  -->
<svg version="1.1" id="Layer_1" xmlns="http://www.w3.org/2000/svg" xmlns:xlink="http://www.w3.org/1999/xlink" x="0px" y="0px"
	 viewBox="0 0 30 30" style="enable-background:new 0 0 30 30;" xml:space="preserve">
<style type="text/css">
	.st0{fill:#FDFDFD;}
</style>
<path class="st0" d="M17.8,30h-5.6c-0.7,0-1.4-0.5-1.5-1.2L10,26c-0.8-0.4-1.6-0.8-2.4-1.3l-2.8,0.9c-0.7,0.2-1.4-0.1-1.8-0.7
	l-2.8-4.7c-0.4-0.6-0.2-1.4,0.3-1.9l2.2-2c-0.1-0.9-0.1-1.8,0-2.7l-2.2-1.9C0,11.2-0.2,10.5,0.2,9.9L3,5.1c0.4-0.6,1.1-0.9,1.8-0.7
	l2.8,0.9C8,5.1,8.4,4.8,8.8,4.6C9.2,4.4,9.6,4.2,10,4l0.6-2.8C10.8,0.5,11.5,0,12.2,0h5.6c0.7,0,1.4,0.5,1.5,1.2L20,4
	c0.4,0.2,0.9,0.4,1.3,0.6c0.4,0.2,0.8,0.4,1.1,0.7l2.8-0.9c0.7-0.2,1.4,0.1,1.8,0.7l2.8,4.7c0.4,0.6,0.2,1.4-0.3,1.9l-2.2,1.9
	c0.1,0.9,0.1,1.8,0,2.7l2.2,2c0.5,0.5,0.7,1.2,0.3,1.9L27,24.9c-0.4,0.6-1.1,0.9-1.8,0.7l-2.8-0.9c-0.4,0.3-0.7,0.5-1.1,0.7
	c-0.4,0.2-0.8,0.4-1.3,0.6l-0.6,2.8C19.2,29.5,18.5,30,17.8,30z M8.2,21.3l1.3,0.9c0.3,0.2,0.6,0.4,0.9,0.6c0.3,0.2,0.6,0.3,0.9,0.4
	l1.4,0.6l0.7,3.1h3.1l0.7-3.1l1.4-0.6c0.6-0.3,1.2-0.6,1.8-1l1.3-0.9l3.2,1l1.6-2.6l-2.4-2.2l0.2-1.5c0.1-0.7,0.1-1.3,0-2l-0.2-1.5
	l2.4-2.2l-1.6-2.6l-3.2,1l-1.3-0.9c-0.6-0.4-1.2-0.7-1.8-1l-1.4-0.6L16.6,3h-3.1l-0.7,3.1l-1.4,0.6C11,6.9,10.7,7,10.4,7.2
	c-0.3,0.2-0.6,0.4-0.9,0.6L8.2,8.6l-3.2-1l-1.6,2.6L6,12.5L5.8,14c-0.1,0.7-0.1,1.3,0,2L6,17.5l-2.4,2.2l1.6,2.6L8.2,21.3z M15,21
	c-3.4,0-6.2-2.7-6.2-6s2.8-6,6.2-6c3.4,0,6.2,2.7,6.2,6C21.2,18.3,18.4,21,15,21z M15,12c-1.7,0-3.1,1.3-3.1,3c0,1.6,1.3,3,3,3
	c1.7,0,3.1-1.2,3.2-2.9v0.6V15C18.1,13.3,16.7,12,15,12z"/>
</svg>
